<svg width="21" height="15" viewBox="0 0 21 15" fill="none" xmlns="http://www.w3.org/2000/svg">
<path fill-rule="evenodd" clip-rule="evenodd" d="M10.5 0C5.72727 0 1.65136 3.11 0 7.5C1.65136 11.89 5.72727 15 10.5 15C15.2727 15 19.3486 11.89 21 7.5C19.3486 3.11 15.2727 0 10.5 0ZM10.5 12.5C7.86545 12.5 5.72727 10.26 5.72727 7.5C5.72727 4.74 7.86545 2.5 10.5 2.5C13.1345 2.5 15.2727 4.74 15.2727 7.5C15.2727 10.26 13.1345 12.5 10.5 12.5ZM10.5 4.5C8.91545 4.5 7.63636 5.84 7.63636 7.5C7.63636 9.16 8.91545 10.5 10.5 10.5C12.0845 10.5 13.3636 9.16 13.3636 7.5C13.3636 5.84 12.0845 4.5 10.5 4.5Z" fill="#4D66F3"/>
</svg>
