<svg width="37" height="34" viewBox="0 0 37 34" fill="none" xmlns="http://www.w3.org/2000/svg">
<path d="M33.1791 29.6987C33.1791 31.8624 31.373 33.6327 29.1656 33.6327H7.09007C4.88253 33.6327 3.07635 31.8624 3.07635 29.6987V12.9791C3.07635 10.8155 4.88253 9.04517 7.09007 9.04517H29.1656C31.373 9.04517 33.1791 10.8155 33.1791 12.9791V29.6987Z" fill="#FDD888"/>
<path d="M36.1898 10.0282C36.1898 12.1924 34.3836 13.9628 32.1761 13.9628H4.07996C1.87242 13.9628 0.0662384 12.1924 0.0662384 10.0282C0.0662384 7.86455 1.87242 6.09424 4.07996 6.09424H32.1761C34.3836 6.09424 36.1898 7.86455 36.1898 10.0282Z" fill="#FDD888"/>
<path d="M3.07635 13.9629H33.1791V15.9296H3.07635V13.9629Z" fill="#FCAB40"/>
<path d="M19.1313 2.16064H17.1244C16.326 2.16064 15.5604 2.47156 14.9959 3.02534C14.4313 3.57856 14.1142 4.32874 14.1142 5.11155V33.633H22.1416V5.11155C22.1416 4.32874 21.8245 3.57856 21.2599 3.02534C20.6954 2.47156 19.9297 2.16064 19.1313 2.16064Z" fill="#DA2F47"/>
<path d="M16.1215 6.09445C17.2252 6.09445 17.3888 5.58714 16.4837 4.96642L9.7386 0.338149C9.53168 0.190438 9.29496 0.0875393 9.04429 0.0366427C8.79363 -0.014254 8.53473 -0.0120402 8.28491 0.042729C8.03509 0.0974982 7.80006 0.203715 7.59551 0.354745C7.39096 0.505775 7.22152 0.69719 7.09859 0.917373L5.07567 4.3872C4.52777 5.32657 4.98333 6.09445 6.08713 6.09445H16.1215ZM20.1352 6.09445C19.0314 6.09445 18.8678 5.58714 19.7729 4.96642L26.519 0.338149C26.7261 0.190438 26.9627 0.088088 27.2134 0.0371914C27.464 -0.0137053 27.7228 -0.0114915 27.9726 0.0432777C28.2224 0.0980469 28.4573 0.204268 28.6619 0.354745C28.8665 0.505775 29.036 0.697743 29.159 0.917373L31.1822 4.38609C31.7291 5.32658 31.2731 6.09445 30.1696 6.09445H20.1352Z" fill="#DA2F47"/>
</svg>
